<svg viewBox="0 0 32 32" fill="none" xmlns="http://www.w3.org/2000/svg">
<path d="M10.7562 6.7875C10.1687 7.08125 9.89995 7.70625 10.0875 8.34375C10.1562 8.575 10.2687 8.7375 10.5125 8.975C10.6937 9.15 12.5937 10.7875 14.7375 12.6188C16.875 14.45 18.625 15.9625 18.6187 15.9875C18.6187 16.0125 16.8875 17.5063 14.775 19.3125C9.9187 23.4563 10.15 23.2438 10.0312 23.6438C9.6937 24.775 10.8687 25.7625 11.8937 25.2125C12.2625 25.0125 21.575 17.025 21.7875 16.725C22.1875 16.1625 22.1062 15.5 21.5812 14.9875C21.4187 14.8313 19.1937 12.9187 16.6437 10.7375C13.1687 7.7625 11.95 6.75625 11.7625 6.7C11.3875 6.5875 11.1187 6.6125 10.7562 6.7875Z" fill="#EA5959"/>
</svg>
