<svg width="28" height="28" viewBox="0 0 28 28" fill="none" xmlns="http://www.w3.org/2000/svg">
    <rect x="0.75" y="0.75" width="26.5" height="26.5" rx="7.25" stroke="#EA5959" stroke-width="1.5"/>
    <path d="M23.8975 6.36565C23.7772 6.4094 23.6241 6.50237 23.5475 6.57347C23.4709 6.63909 21.0373 9.32972 18.1334 12.5508C14.2233 16.8875 12.7905 18.4461 12.5772 18.5774C12.2436 18.7907 11.8772 18.818 11.5272 18.6539C11.4014 18.5992 10.0998 17.4672 8.46468 15.9961C6.57796 14.3008 5.5389 13.3985 5.38031 13.3274C4.63109 12.9938 3.77249 13.5516 3.77249 14.3774C3.76702 14.5469 3.80531 14.7711 3.85452 14.8805C3.91468 15.0227 5.02484 16.1 7.58968 18.5172C9.59671 20.4094 11.3358 22.0172 11.4616 22.0938C11.8061 22.2961 12.2709 22.2852 12.61 22.0664C12.8944 21.8805 25.1334 8.32347 25.303 8.00081C25.6858 7.28987 25.1936 6.393 24.3733 6.31643C24.2092 6.30003 24.0233 6.31643 23.8975 6.36565Z" fill="#EA5959"/>
</svg>
